# xmcd
#
# Track frame offsets:
#	150
#	12881
#	24479
#	36172
#	48031
#	58779
#	71026
#	84498
#	97453
#	107677
#	123767
#
# Disc length: 1800 seconds
#
# Revision: 0
# Processed by: cddbd v1.5PL3 Copyright (c) Steve Scherf et al.
# Submitted via: audiograbber 1.81.03
#
DISCID=8c07060b
DTITLE=Walter Brennan - Ghost Riders In The Sky
DYEAR=1900
DGENRE=
TTITLE0=Riders In The Sky
TTITLE1=Conversation With A Gun
TTITLE2=Nineteen Men
TTITLE3=Sod Buster
TTITLE4=Streets Of Laredo
TTITLE5=Run Apache
TTITLE6=Cool Water
TTITLE7=Rope On A Tree
TTITLE8=Droop Ears
TTITLE9=Gunfight At O.K. Corral
TTITLE10=High Noon (Do Not Forsake Me)
EXTD=
EXTT0=
EXTT1=
EXTT2=
EXTT3=
EXTT4=
EXTT5=
EXTT6=
EXTT7=
EXTT8=
EXTT9=
EXTT10=
PLAYORDER=
